# xmcd
#
# Track frame offsets:
#	150
#	21497
#	36745
#	51757
#	66059
#	81584
#	96844
#	111553
#	133961
#	151829
#	169445
#	183163
#	196445
#	213969
#	241392
#
# Disc length: 3309 seconds
#
# Revision: 4
# Processed by: cddbd v1.5.2PL0 Copyright (c) Steve Scherf et al.
# Submitted via: dBpowerAMP V4.0
#
DISCID=e40ceb0f
DTITLE=Alison Krauss - Essential Alison Krauss
DYEAR=2009
DGENRE=Country
TTITLE0=Simple Love
TTITLE1=Sister Rosetta Goes Before Us
TTITLE2=Let Me Touch You for a While
TTITLE3=The Lucky One
TTITLE4=So Long, So Wrong
TTITLE5=Empty Hearts
TTITLE6=Every Time You Say Goodbye
TTITLE7=Wish I Still Had You
TTITLE8=Broadway
TTITLE9=Baby, Now That I've Found You
TTITLE10=Sawing of the Strings
TTITLE11=Restless
TTITLE12=When You Say Nothing At All
TTITLE13=A Living Prayer
TTITLE14=DATA
EXTD=
EXTT0=
EXTT1=
EXTT2=
EXTT3=
EXTT4=
EXTT5=
EXTT6=
EXTT7=
EXTT8=
EXTT9=
EXTT10=
EXTT11=
EXTT12=
EXTT13=
EXTT14=
PLAYORDER=
